<?xml version="1.0" encoding="UTF-8" standalone="no"?>
<!DOCTYPE svg PUBLIC "-//W3C//DTD SVG 1.1//EN"
 "http://www.w3.org/Graphics/SVG/1.1/DTD/svg11.dtd">
<!-- Generated by graphviz version 2.38.0 (20140413.2041)
 -->
<!-- Title: G Pages: 1 -->
<svg width="509pt" height="506pt"
 viewBox="0.00 0.00 509.00 506.00" xmlns="http://www.w3.org/2000/svg" xmlns:xlink="http://www.w3.org/1999/xlink">
<g id="graph0" class="graph" transform="scale(1 1) rotate(0) translate(4 502)">
<title>G</title>
<polygon fill="white" stroke="none" points="-4,4 -4,-502 505,-502 505,4 -4,4"/>
<!-- 5 -->
<g id="node1" class="node"><title>5</title>
<ellipse fill="none" stroke="black" cx="195" cy="-450" rx="27" ry="18"/>
<text text-anchor="middle" x="195" y="-446.3" font-family="Times,serif" font-size="14.00">5</text>
<text text-anchor="middle" x="152" y="-486.8" font-family="Times,serif" font-size="14.00">len=9</text>
<text text-anchor="middle" x="152" y="-471.8" font-family="Times,serif" font-size="14.00">h=6</text>
</g>
<!-- 3 -->
<g id="node2" class="node"><title>3</title>
<ellipse fill="none" stroke="black" cx="132" cy="-378" rx="27" ry="18"/>
<text text-anchor="middle" x="132" y="-374.3" font-family="Times,serif" font-size="14.00">3</text>
<text text-anchor="middle" x="89" y="-414.8" font-family="Times,serif" font-size="14.00">len=2</text>
<text text-anchor="middle" x="89" y="-399.8" font-family="Times,serif" font-size="14.00">h=2</text>
</g>
<!-- 5&#45;&gt;3 -->
<g id="edge1" class="edge"><title>5&#45;&gt;3</title>
<path fill="none" stroke="black" d="M181.639,-434.155C173.12,-424.689 161.915,-412.238 152.307,-401.563"/>
<polygon fill="black" stroke="black" points="154.633,-398.915 145.341,-393.824 149.43,-403.598 154.633,-398.915"/>
</g>
<!-- 10 -->
<g id="node3" class="node"><title>10</title>
<ellipse fill="none" stroke="black" cx="258" cy="-378" rx="27" ry="18"/>
<text text-anchor="middle" x="258" y="-374.3" font-family="Times,serif" font-size="14.00">10</text>
<text text-anchor="middle" x="215" y="-414.8" font-family="Times,serif" font-size="14.00">len=6</text>
<text text-anchor="middle" x="215" y="-399.8" font-family="Times,serif" font-size="14.00">h=5</text>
</g>
<!-- 5&#45;&gt;10 -->
<g id="edge2" class="edge"><title>5&#45;&gt;10</title>
<path fill="none" stroke="black" d="M208.361,-434.155C216.88,-424.689 228.085,-412.238 237.693,-401.563"/>
<polygon fill="black" stroke="black" points="240.57,-403.598 244.659,-393.824 235.367,-398.915 240.57,-403.598"/>
</g>
<!-- n1 -->
<g id="node4" class="node"><title>n1</title>
<polygon fill="none" stroke="black" points="36,-324 0,-324 0,-288 36,-288 36,-324"/>
</g>
<!-- 3&#45;&gt;n1 -->
<g id="edge3" class="edge"><title>3&#45;&gt;n1</title>
<path fill="none" stroke="black" d="M112.661,-365.125C94.0685,-353.709 65.7987,-336.35 44.9917,-323.574"/>
<polygon fill="black" stroke="black" points="46.6534,-320.487 36.3003,-318.237 42.9905,-326.452 46.6534,-320.487"/>
</g>
<!-- 4 -->
<g id="node5" class="node"><title>4</title>
<ellipse fill="none" stroke="black" cx="135" cy="-306" rx="27" ry="18"/>
<text text-anchor="middle" x="135" y="-302.3" font-family="Times,serif" font-size="14.00">4</text>
<text text-anchor="middle" x="92" y="-342.8" font-family="Times,serif" font-size="14.00">len=1</text>
<text text-anchor="middle" x="92" y="-327.8" font-family="Times,serif" font-size="14.00">h=1</text>
</g>
<!-- 3&#45;&gt;4 -->
<g id="edge4" class="edge"><title>3&#45;&gt;4</title>
<path fill="none" stroke="black" d="M132.742,-359.697C133.072,-351.983 133.469,-342.712 133.838,-334.112"/>
<polygon fill="black" stroke="black" points="137.335,-334.245 134.267,-324.104 130.342,-333.945 137.335,-334.245"/>
</g>
<!-- 20 -->
<g id="node6" class="node"><title>20</title>
<ellipse fill="none" stroke="black" cx="373" cy="-306" rx="27" ry="18"/>
<text text-anchor="middle" x="373" y="-302.3" font-family="Times,serif" font-size="14.00">20</text>
<text text-anchor="middle" x="330" y="-342.8" font-family="Times,serif" font-size="14.00">len=5</text>
<text text-anchor="middle" x="330" y="-327.8" font-family="Times,serif" font-size="14.00">h=4</text>
</g>
<!-- 10&#45;&gt;20 -->
<g id="edge6" class="edge"><title>10&#45;&gt;20</title>
<path fill="none" stroke="black" d="M277.248,-365.284C295.74,-354.028 323.892,-336.892 344.891,-324.11"/>
<polygon fill="black" stroke="black" points="346.967,-326.944 353.689,-318.755 343.327,-320.964 346.967,-326.944"/>
</g>
<!-- n2 -->
<g id="node11" class="node"><title>n2</title>
<polygon fill="none" stroke="black" points="274,-324 238,-324 238,-288 274,-288 274,-324"/>
</g>
<!-- 10&#45;&gt;n2 -->
<g id="edge5" class="edge"><title>10&#45;&gt;n2</title>
<path fill="none" stroke="black" d="M257.506,-359.697C257.285,-351.983 257.02,-342.712 256.775,-334.112"/>
<polygon fill="black" stroke="black" points="260.273,-334 256.489,-324.104 253.276,-334.2 260.273,-334"/>
</g>
<!-- n6 -->
<g id="node15" class="node"><title>n6</title>
<polygon fill="none" stroke="black" points="76,-252 40,-252 40,-216 76,-216 76,-252"/>
</g>
<!-- 4&#45;&gt;n6 -->
<g id="edge7" class="edge"><title>4&#45;&gt;n6</title>
<path fill="none" stroke="black" d="M119.418,-290.834C109.18,-281.527 95.5431,-269.13 83.7199,-258.382"/>
<polygon fill="black" stroke="black" points="86.02,-255.743 76.2662,-251.606 81.3113,-260.922 86.02,-255.743"/>
</g>
<!-- n7 -->
<g id="node16" class="node"><title>n7</title>
<polygon fill="none" stroke="black" points="184,-252 148,-252 148,-216 184,-216 184,-252"/>
</g>
<!-- 4&#45;&gt;n7 -->
<g id="edge8" class="edge"><title>4&#45;&gt;n7</title>
<path fill="none" stroke="black" d="M142.347,-288.411C145.87,-280.454 150.18,-270.722 154.151,-261.756"/>
<polygon fill="black" stroke="black" points="157.424,-263.008 158.274,-252.447 151.024,-260.173 157.424,-263.008"/>
</g>
<!-- 15 -->
<g id="node7" class="node"><title>15</title>
<ellipse fill="none" stroke="black" cx="314" cy="-234" rx="27" ry="18"/>
<text text-anchor="middle" x="314" y="-230.3" font-family="Times,serif" font-size="14.00">15</text>
<text text-anchor="middle" x="271" y="-270.8" font-family="Times,serif" font-size="14.00">len=4</text>
<text text-anchor="middle" x="271" y="-255.8" font-family="Times,serif" font-size="14.00">h=3</text>
</g>
<!-- 20&#45;&gt;15 -->
<g id="edge9" class="edge"><title>20&#45;&gt;15</title>
<path fill="none" stroke="black" d="M360.198,-289.811C352.389,-280.546 342.253,-268.52 333.465,-258.094"/>
<polygon fill="black" stroke="black" points="335.898,-255.55 326.777,-250.159 330.546,-260.061 335.898,-255.55"/>
</g>
<!-- n3 -->
<g id="node12" class="node"><title>n3</title>
<polygon fill="none" stroke="black" points="449,-252 413,-252 413,-216 449,-216 449,-252"/>
</g>
<!-- 20&#45;&gt;n3 -->
<g id="edge10" class="edge"><title>20&#45;&gt;n3</title>
<path fill="none" stroke="black" d="M385.585,-289.811C392.769,-281.141 401.957,-270.052 410.187,-260.12"/>
<polygon fill="black" stroke="black" points="413.124,-262.06 416.809,-252.127 407.734,-257.594 413.124,-262.06"/>
</g>
<!-- 11 -->
<g id="node8" class="node"><title>11</title>
<ellipse fill="none" stroke="black" cx="251" cy="-162" rx="27" ry="18"/>
<text text-anchor="middle" x="251" y="-158.3" font-family="Times,serif" font-size="14.00">11</text>
<text text-anchor="middle" x="208" y="-198.8" font-family="Times,serif" font-size="14.00">len=2</text>
<text text-anchor="middle" x="208" y="-183.8" font-family="Times,serif" font-size="14.00">h=2</text>
</g>
<!-- 15&#45;&gt;11 -->
<g id="edge11" class="edge"><title>15&#45;&gt;11</title>
<path fill="none" stroke="black" d="M300.639,-218.155C292.12,-208.689 280.915,-196.238 271.307,-185.563"/>
<polygon fill="black" stroke="black" points="273.633,-182.915 264.341,-177.824 268.43,-187.598 273.633,-182.915"/>
</g>
<!-- 17 -->
<g id="node9" class="node"><title>17</title>
<ellipse fill="none" stroke="black" cx="377" cy="-162" rx="27" ry="18"/>
<text text-anchor="middle" x="377" y="-158.3" font-family="Times,serif" font-size="14.00">17</text>
<text text-anchor="middle" x="334" y="-198.8" font-family="Times,serif" font-size="14.00">len=1</text>
<text text-anchor="middle" x="334" y="-183.8" font-family="Times,serif" font-size="14.00">h=1</text>
</g>
<!-- 15&#45;&gt;17 -->
<g id="edge12" class="edge"><title>15&#45;&gt;17</title>
<path fill="none" stroke="black" d="M327.361,-218.155C335.88,-208.689 347.085,-196.238 356.693,-185.563"/>
<polygon fill="black" stroke="black" points="359.57,-187.598 363.659,-177.824 354.367,-182.915 359.57,-187.598"/>
</g>
<!-- 14 -->
<g id="node10" class="node"><title>14</title>
<ellipse fill="none" stroke="black" cx="254" cy="-90" rx="27" ry="18"/>
<text text-anchor="middle" x="254" y="-86.3" font-family="Times,serif" font-size="14.00">14</text>
<text text-anchor="middle" x="211" y="-126.8" font-family="Times,serif" font-size="14.00">len=1</text>
<text text-anchor="middle" x="211" y="-111.8" font-family="Times,serif" font-size="14.00">h=1</text>
</g>
<!-- 11&#45;&gt;14 -->
<g id="edge14" class="edge"><title>11&#45;&gt;14</title>
<path fill="none" stroke="black" d="M251.742,-143.697C252.072,-135.983 252.469,-126.712 252.838,-118.112"/>
<polygon fill="black" stroke="black" points="256.335,-118.245 253.267,-108.104 249.342,-117.945 256.335,-118.245"/>
</g>
<!-- n4 -->
<g id="node13" class="node"><title>n4</title>
<polygon fill="none" stroke="black" points="155,-108 119,-108 119,-72 155,-72 155,-108"/>
</g>
<!-- 11&#45;&gt;n4 -->
<g id="edge13" class="edge"><title>11&#45;&gt;n4</title>
<path fill="none" stroke="black" d="M231.661,-149.125C213.069,-137.709 184.799,-120.35 163.992,-107.574"/>
<polygon fill="black" stroke="black" points="165.653,-104.487 155.3,-102.237 161.991,-110.452 165.653,-104.487"/>
</g>
<!-- n5 -->
<g id="node14" class="node"><title>n5</title>
<polygon fill="none" stroke="black" points="393,-108 357,-108 357,-72 393,-72 393,-108"/>
</g>
<!-- 17&#45;&gt;n5 -->
<g id="edge15" class="edge"><title>17&#45;&gt;n5</title>
<path fill="none" stroke="black" d="M376.506,-143.697C376.285,-135.983 376.02,-126.712 375.775,-118.112"/>
<polygon fill="black" stroke="black" points="379.273,-118 375.489,-108.104 372.276,-118.2 379.273,-118"/>
</g>
<!-- n8 -->
<g id="node17" class="node"><title>n8</title>
<polygon fill="none" stroke="black" points="501,-108 465,-108 465,-72 501,-72 501,-108"/>
</g>
<!-- 17&#45;&gt;n8 -->
<g id="edge16" class="edge"><title>17&#45;&gt;n8</title>
<path fill="none" stroke="black" d="M395.464,-148.807C412.259,-137.715 437.251,-121.212 456.236,-108.674"/>
<polygon fill="black" stroke="black" points="458.332,-111.485 464.748,-103.053 454.474,-105.643 458.332,-111.485"/>
</g>
<!-- n9 -->
<g id="node18" class="node"><title>n9</title>
<polygon fill="none" stroke="black" points="218,-36 182,-36 182,-0 218,-0 218,-36"/>
</g>
<!-- 14&#45;&gt;n9 -->
<g id="edge17" class="edge"><title>14&#45;&gt;n9</title>
<path fill="none" stroke="black" d="M242.016,-73.4647C235.479,-64.9912 227.22,-54.2857 219.759,-44.6131"/>
<polygon fill="black" stroke="black" points="222.349,-42.2409 213.47,-36.4609 216.807,-46.5165 222.349,-42.2409"/>
</g>
<!-- n10 -->
<g id="node19" class="node"><title>n10</title>
<polygon fill="none" stroke="black" points="326,-36 290,-36 290,-0 326,-0 326,-36"/>
</g>
<!-- 14&#45;&gt;n10 -->
<g id="edge18" class="edge"><title>14&#45;&gt;n10</title>
<path fill="none" stroke="black" d="M265.984,-73.4647C272.521,-64.9912 280.78,-54.2857 288.241,-44.6131"/>
<polygon fill="black" stroke="black" points="291.193,-46.5165 294.53,-36.4609 285.651,-42.2409 291.193,-46.5165"/>
</g>
</g>
</svg>
