<?xml version="1.0" encoding="UTF-8" standalone="no"?>
<!DOCTYPE svg PUBLIC "-//W3C//DTD SVG 1.1//EN"
 "http://www.w3.org/Graphics/SVG/1.1/DTD/svg11.dtd">
<!-- Generated by graphviz version 2.38.0 (20140413.2041)
 -->
<!-- Title: G Pages: 1 -->
<svg width="206pt" height="260pt"
 viewBox="0.00 0.00 206.00 260.00" xmlns="http://www.w3.org/2000/svg" xmlns:xlink="http://www.w3.org/1999/xlink">
<g id="graph0" class="graph" transform="scale(1 1) rotate(0) translate(4 256)">
<title>G</title>
<polygon fill="white" stroke="none" points="-4,4 -4,-256 202,-256 202,4 -4,4"/>
<!-- 1 -->
<g id="node1" class="node"><title>1</title>
<ellipse fill="none" stroke="black" cx="99" cy="-234" rx="27" ry="18"/>
<text text-anchor="middle" x="99" y="-230.3" font-family="Times,serif" font-size="14.00">1</text>
</g>
<!-- 2 -->
<g id="node2" class="node"><title>2</title>
<ellipse fill="none" stroke="black" cx="99" cy="-162" rx="27" ry="18"/>
<text text-anchor="middle" x="99" y="-158.3" font-family="Times,serif" font-size="14.00">2</text>
</g>
<!-- 1&#45;&#45;2 -->
<g id="edge1" class="edge"><title>1&#45;&#45;2</title>
<path fill="none" stroke="red" d="M99,-215.697C99,-204.846 99,-190.917 99,-180.104"/>
</g>
<!-- 3 -->
<g id="node3" class="node"><title>3</title>
<ellipse fill="none" stroke="black" cx="27" cy="-162" rx="27" ry="18"/>
<text text-anchor="middle" x="27" y="-158.3" font-family="Times,serif" font-size="14.00">3</text>
</g>
<!-- 1&#45;&#45;3 -->
<g id="edge2" class="edge"><title>1&#45;&#45;3</title>
<path fill="none" stroke="red" d="M84.4297,-218.834C72.0202,-206.77 54.2694,-189.512 41.7957,-177.385"/>
</g>
<!-- 4 -->
<g id="node5" class="node"><title>4</title>
<ellipse fill="none" stroke="black" cx="52" cy="-90" rx="27" ry="18"/>
<text text-anchor="middle" x="52" y="-86.3" font-family="Times,serif" font-size="14.00">4</text>
</g>
<!-- 2&#45;&#45;4 -->
<g id="edge4" class="edge"><title>2&#45;&#45;4</title>
<path fill="none" stroke="black" d="M88.335,-145.116C80.6431,-133.66 70.305,-118.263 62.6228,-106.821"/>
</g>
<!-- 5 -->
<g id="node6" class="node"><title>5</title>
<ellipse fill="none" stroke="black" cx="107" cy="-18" rx="27" ry="18"/>
<text text-anchor="middle" x="107" y="-14.3" font-family="Times,serif" font-size="14.00">5</text>
</g>
<!-- 2&#45;&#45;5 -->
<g id="edge7" class="edge"><title>2&#45;&#45;5</title>
<path fill="none" stroke="red" d="M99.965,-143.871C101.503,-116.578 104.492,-63.5205 106.032,-36.1893"/>
</g>
<!-- 3&#45;&#45;4 -->
<g id="edge3" class="edge"><title>3&#45;&#45;4</title>
<path fill="none" stroke="red" d="M32.9247,-144.411C36.8521,-133.414 41.9902,-119.027 45.9442,-107.956"/>
</g>
<!-- 6 -->
<g id="node4" class="node"><title>6</title>
<ellipse fill="none" stroke="black" cx="171" cy="-162" rx="27" ry="18"/>
<text text-anchor="middle" x="171" y="-158.3" font-family="Times,serif" font-size="14.00">6</text>
</g>
<!-- 6&#45;&#45;1 -->
<g id="edge8" class="edge"><title>6&#45;&#45;1</title>
<path fill="none" stroke="red" d="M156.204,-177.385C143.731,-189.512 125.98,-206.77 113.57,-218.834"/>
</g>
<!-- 4&#45;&#45;5 -->
<g id="edge5" class="edge"><title>4&#45;&#45;5</title>
<path fill="none" stroke="black" d="M63.9342,-73.811C73.1595,-62.0697 85.8696,-45.8932 95.0891,-34.1593"/>
</g>
<!-- 5&#45;&#45;6 -->
<g id="edge6" class="edge"><title>5&#45;&#45;6</title>
<path fill="none" stroke="black" d="M114.419,-35.4616C126.72,-62.754 151.201,-117.071 163.533,-144.433"/>
</g>
</g>
</svg>
