<?xml version="1.0" encoding="UTF-8" standalone="no"?>
<!DOCTYPE svg PUBLIC "-//W3C//DTD SVG 1.1//EN"
 "http://www.w3.org/Graphics/SVG/1.1/DTD/svg11.dtd">
<!-- Generated by graphviz version 2.38.0 (20140413.2041)
 -->
<!-- Title: G Pages: 1 -->
<svg width="593pt" height="362pt"
 viewBox="0.00 0.00 593.00 362.00" xmlns="http://www.w3.org/2000/svg" xmlns:xlink="http://www.w3.org/1999/xlink">
<g id="graph0" class="graph" transform="scale(1 1) rotate(0) translate(4 358)">
<title>G</title>
<polygon fill="white" stroke="none" points="-4,4 -4,-358 589,-358 589,4 -4,4"/>
<!-- 5 -->
<g id="node1" class="node"><title>5</title>
<ellipse fill="none" stroke="black" cx="225" cy="-306" rx="27" ry="18"/>
<text text-anchor="middle" x="225" y="-302.3" font-family="Times,serif" font-size="14.00">5</text>
<text text-anchor="middle" x="182" y="-342.8" font-family="Times,serif" font-size="14.00">len=9</text>
<text text-anchor="middle" x="182" y="-327.8" font-family="Times,serif" font-size="14.00">h=4</text>
</g>
<!-- 3 -->
<g id="node2" class="node"><title>3</title>
<ellipse fill="none" stroke="black" cx="162" cy="-234" rx="27" ry="18"/>
<text text-anchor="middle" x="162" y="-230.3" font-family="Times,serif" font-size="14.00">3</text>
<text text-anchor="middle" x="119" y="-270.8" font-family="Times,serif" font-size="14.00">len=2</text>
<text text-anchor="middle" x="119" y="-255.8" font-family="Times,serif" font-size="14.00">h=2</text>
</g>
<!-- 5&#45;&gt;3 -->
<g id="edge1" class="edge"><title>5&#45;&gt;3</title>
<path fill="none" stroke="black" d="M211.639,-290.155C203.12,-280.689 191.915,-268.238 182.307,-257.563"/>
<polygon fill="black" stroke="black" points="184.633,-254.915 175.341,-249.824 179.43,-259.598 184.633,-254.915"/>
</g>
<!-- 15 -->
<g id="node7" class="node"><title>15</title>
<ellipse fill="none" stroke="black" cx="288" cy="-234" rx="27" ry="18"/>
<text text-anchor="middle" x="288" y="-230.3" font-family="Times,serif" font-size="14.00">15</text>
<text text-anchor="middle" x="245" y="-270.8" font-family="Times,serif" font-size="14.00">len=6</text>
<text text-anchor="middle" x="245" y="-255.8" font-family="Times,serif" font-size="14.00">h=3</text>
</g>
<!-- 5&#45;&gt;15 -->
<g id="edge2" class="edge"><title>5&#45;&gt;15</title>
<path fill="none" stroke="black" d="M238.361,-290.155C246.88,-280.689 258.085,-268.238 267.693,-257.563"/>
<polygon fill="black" stroke="black" points="270.57,-259.598 274.659,-249.824 265.367,-254.915 270.57,-259.598"/>
</g>
<!-- n1 -->
<g id="node4" class="node"><title>n1</title>
<polygon fill="none" stroke="black" points="63,-180 27,-180 27,-144 63,-144 63,-180"/>
</g>
<!-- 3&#45;&gt;n1 -->
<g id="edge3" class="edge"><title>3&#45;&gt;n1</title>
<path fill="none" stroke="black" d="M142.417,-221.284C123.064,-209.705 93.3106,-191.904 71.7777,-179.021"/>
<polygon fill="black" stroke="black" points="73.4852,-175.964 63.1068,-173.833 69.8913,-181.971 73.4852,-175.964"/>
</g>
<!-- 4 -->
<g id="node5" class="node"><title>4</title>
<ellipse fill="none" stroke="black" cx="162" cy="-162" rx="27" ry="18"/>
<text text-anchor="middle" x="162" y="-158.3" font-family="Times,serif" font-size="14.00">4</text>
<text text-anchor="middle" x="119" y="-198.8" font-family="Times,serif" font-size="14.00">len=1</text>
<text text-anchor="middle" x="119" y="-183.8" font-family="Times,serif" font-size="14.00">h=1</text>
</g>
<!-- 3&#45;&gt;4 -->
<g id="edge4" class="edge"><title>3&#45;&gt;4</title>
<path fill="none" stroke="black" d="M162,-215.697C162,-207.983 162,-198.712 162,-190.112"/>
<polygon fill="black" stroke="black" points="165.5,-190.104 162,-180.104 158.5,-190.104 165.5,-190.104"/>
</g>
<!-- 10 -->
<g id="node3" class="node"><title>10</title>
<ellipse fill="none" stroke="black" cx="126" cy="-90" rx="27" ry="18"/>
<text text-anchor="middle" x="126" y="-86.3" font-family="Times,serif" font-size="14.00">10</text>
<text text-anchor="middle" x="83" y="-126.8" font-family="Times,serif" font-size="14.00">len=1</text>
<text text-anchor="middle" x="83" y="-111.8" font-family="Times,serif" font-size="14.00">h=1</text>
</g>
<!-- n2 -->
<g id="node11" class="node"><title>n2</title>
<polygon fill="none" stroke="black" points="36,-36 0,-36 0,-0 36,-0 36,-36"/>
</g>
<!-- 10&#45;&gt;n2 -->
<g id="edge11" class="edge"><title>10&#45;&gt;n2</title>
<path fill="none" stroke="black" d="M107.188,-76.8069C89.893,-65.5973 64.0689,-48.8595 44.653,-36.2751"/>
<polygon fill="black" stroke="black" points="46.5319,-33.3221 36.2367,-30.8201 42.7246,-39.1961 46.5319,-33.3221"/>
</g>
<!-- n3 -->
<g id="node12" class="node"><title>n3</title>
<polygon fill="none" stroke="black" points="144,-36 108,-36 108,-0 144,-0 144,-36"/>
</g>
<!-- 10&#45;&gt;n3 -->
<g id="edge12" class="edge"><title>10&#45;&gt;n3</title>
<path fill="none" stroke="black" d="M126,-71.6966C126,-63.9827 126,-54.7125 126,-46.1124"/>
<polygon fill="black" stroke="black" points="129.5,-46.1043 126,-36.1043 122.5,-46.1044 129.5,-46.1043"/>
</g>
<!-- 20 -->
<g id="node6" class="node"><title>20</title>
<ellipse fill="none" stroke="black" cx="450" cy="-162" rx="27" ry="18"/>
<text text-anchor="middle" x="450" y="-158.3" font-family="Times,serif" font-size="14.00">20</text>
<text text-anchor="middle" x="407" y="-198.8" font-family="Times,serif" font-size="14.00">len=2</text>
<text text-anchor="middle" x="407" y="-183.8" font-family="Times,serif" font-size="14.00">h=2</text>
</g>
<!-- 17 -->
<g id="node9" class="node"><title>17</title>
<ellipse fill="none" stroke="black" cx="450" cy="-90" rx="27" ry="18"/>
<text text-anchor="middle" x="450" y="-86.3" font-family="Times,serif" font-size="14.00">17</text>
<text text-anchor="middle" x="407" y="-126.8" font-family="Times,serif" font-size="14.00">len=1</text>
<text text-anchor="middle" x="407" y="-111.8" font-family="Times,serif" font-size="14.00">h=1</text>
</g>
<!-- 20&#45;&gt;17 -->
<g id="edge9" class="edge"><title>20&#45;&gt;17</title>
<path fill="none" stroke="black" d="M450,-143.697C450,-135.983 450,-126.712 450,-118.112"/>
<polygon fill="black" stroke="black" points="453.5,-118.104 450,-108.104 446.5,-118.104 453.5,-118.104"/>
</g>
<!-- n6 -->
<g id="node15" class="node"><title>n6</title>
<polygon fill="none" stroke="black" points="585,-108 549,-108 549,-72 585,-72 585,-108"/>
</g>
<!-- 20&#45;&gt;n6 -->
<g id="edge10" class="edge"><title>20&#45;&gt;n6</title>
<path fill="none" stroke="black" d="M469.583,-149.284C488.936,-137.705 518.689,-119.904 540.222,-107.021"/>
<polygon fill="black" stroke="black" points="542.109,-109.971 548.893,-101.833 538.515,-103.964 542.109,-109.971"/>
</g>
<!-- 15&#45;&gt;20 -->
<g id="edge6" class="edge"><title>15&#45;&gt;20</title>
<path fill="none" stroke="black" d="M310.186,-223.414C338.222,-211.299 386.653,-190.372 418.509,-176.607"/>
<polygon fill="black" stroke="black" points="420.031,-179.762 427.823,-172.583 417.255,-173.336 420.031,-179.762"/>
</g>
<!-- 11 -->
<g id="node8" class="node"><title>11</title>
<ellipse fill="none" stroke="black" cx="288" cy="-162" rx="27" ry="18"/>
<text text-anchor="middle" x="288" y="-158.3" font-family="Times,serif" font-size="14.00">11</text>
<text text-anchor="middle" x="245" y="-198.8" font-family="Times,serif" font-size="14.00">len=3</text>
<text text-anchor="middle" x="245" y="-183.8" font-family="Times,serif" font-size="14.00">h=2</text>
</g>
<!-- 15&#45;&gt;11 -->
<g id="edge5" class="edge"><title>15&#45;&gt;11</title>
<path fill="none" stroke="black" d="M288,-215.697C288,-207.983 288,-198.712 288,-190.112"/>
<polygon fill="black" stroke="black" points="291.5,-190.104 288,-180.104 284.5,-190.104 291.5,-190.104"/>
</g>
<!-- 11&#45;&gt;10 -->
<g id="edge7" class="edge"><title>11&#45;&gt;10</title>
<path fill="none" stroke="black" d="M265.814,-151.414C237.778,-139.299 189.347,-118.372 157.491,-104.607"/>
<polygon fill="black" stroke="black" points="158.745,-101.336 148.177,-100.583 155.969,-107.762 158.745,-101.336"/>
</g>
<!-- 14 -->
<g id="node10" class="node"><title>14</title>
<ellipse fill="none" stroke="black" cx="288" cy="-90" rx="27" ry="18"/>
<text text-anchor="middle" x="288" y="-86.3" font-family="Times,serif" font-size="14.00">14</text>
<text text-anchor="middle" x="245" y="-126.8" font-family="Times,serif" font-size="14.00">len=1</text>
<text text-anchor="middle" x="245" y="-111.8" font-family="Times,serif" font-size="14.00">h=1</text>
</g>
<!-- 11&#45;&gt;14 -->
<g id="edge8" class="edge"><title>11&#45;&gt;14</title>
<path fill="none" stroke="black" d="M288,-143.697C288,-135.983 288,-126.712 288,-118.112"/>
<polygon fill="black" stroke="black" points="291.5,-118.104 288,-108.104 284.5,-118.104 291.5,-118.104"/>
</g>
<!-- n7 -->
<g id="node16" class="node"><title>n7</title>
<polygon fill="none" stroke="black" points="468,-36 432,-36 432,-0 468,-0 468,-36"/>
</g>
<!-- 17&#45;&gt;n7 -->
<g id="edge15" class="edge"><title>17&#45;&gt;n7</title>
<path fill="none" stroke="black" d="M450,-71.6966C450,-63.9827 450,-54.7125 450,-46.1124"/>
<polygon fill="black" stroke="black" points="453.5,-46.1043 450,-36.1043 446.5,-46.1044 453.5,-46.1043"/>
</g>
<!-- n8 -->
<g id="node17" class="node"><title>n8</title>
<polygon fill="none" stroke="black" points="576,-36 540,-36 540,-0 576,-0 576,-36"/>
</g>
<!-- 17&#45;&gt;n8 -->
<g id="edge16" class="edge"><title>17&#45;&gt;n8</title>
<path fill="none" stroke="black" d="M468.812,-76.8069C486.107,-65.5973 511.931,-48.8595 531.347,-36.2751"/>
<polygon fill="black" stroke="black" points="533.275,-39.1961 539.763,-30.8201 529.468,-33.3221 533.275,-39.1961"/>
</g>
<!-- n4 -->
<g id="node13" class="node"><title>n4</title>
<polygon fill="none" stroke="black" points="252,-36 216,-36 216,-0 252,-0 252,-36"/>
</g>
<!-- 14&#45;&gt;n4 -->
<g id="edge13" class="edge"><title>14&#45;&gt;n4</title>
<path fill="none" stroke="black" d="M276.016,-73.4647C269.479,-64.9912 261.22,-54.2857 253.759,-44.6131"/>
<polygon fill="black" stroke="black" points="256.349,-42.2409 247.47,-36.4609 250.807,-46.5165 256.349,-42.2409"/>
</g>
<!-- n5 -->
<g id="node14" class="node"><title>n5</title>
<polygon fill="none" stroke="black" points="360,-36 324,-36 324,-0 360,-0 360,-36"/>
</g>
<!-- 14&#45;&gt;n5 -->
<g id="edge14" class="edge"><title>14&#45;&gt;n5</title>
<path fill="none" stroke="black" d="M299.984,-73.4647C306.521,-64.9912 314.78,-54.2857 322.241,-44.6131"/>
<polygon fill="black" stroke="black" points="325.193,-46.5165 328.53,-36.4609 319.651,-42.2409 325.193,-46.5165"/>
</g>
</g>
</svg>
