<?xml version="1.0" encoding="UTF-8" standalone="no"?>
<!DOCTYPE svg PUBLIC "-//W3C//DTD SVG 1.1//EN"
 "http://www.w3.org/Graphics/SVG/1.1/DTD/svg11.dtd">
<!-- Generated by graphviz version 2.38.0 (20140413.2041)
 -->
<!-- Title: G Pages: 1 -->
<svg width="321pt" height="275pt"
 viewBox="0.00 0.00 321.00 275.00" xmlns="http://www.w3.org/2000/svg" xmlns:xlink="http://www.w3.org/1999/xlink">
<g id="graph0" class="graph" transform="scale(1 1) rotate(0) translate(4 271)">
<title>G</title>
<polygon fill="white" stroke="none" points="-4,4 -4,-271 317,-271 317,4 -4,4"/>
<!-- 5 -->
<g id="node1" class="node"><title>5</title>
<ellipse fill="none" stroke="black" cx="178" cy="-234" rx="27" ry="18"/>
<text text-anchor="middle" x="178" y="-230.3" font-family="Times,serif" font-size="14.00">5</text>
<text text-anchor="middle" x="147.5" y="-255.8" font-family="Times,serif" font-size="14.00">0</text>
</g>
<!-- 3 -->
<g id="node2" class="node"><title>3</title>
<ellipse fill="none" stroke="black" cx="142" cy="-162" rx="27" ry="18"/>
<text text-anchor="middle" x="142" y="-158.3" font-family="Times,serif" font-size="14.00">3</text>
<text text-anchor="middle" x="111.5" y="-183.8" font-family="Times,serif" font-size="14.00">1</text>
</g>
<!-- 5&#45;&gt;3 -->
<g id="edge1" class="edge"><title>5&#45;&gt;3</title>
<path fill="none" stroke="black" d="M169.65,-216.765C165.288,-208.283 159.853,-197.714 154.959,-188.197"/>
<polygon fill="black" stroke="black" points="157.99,-186.439 150.304,-179.147 151.765,-189.641 157.99,-186.439"/>
</g>
<!-- 8 -->
<g id="node3" class="node"><title>8</title>
<ellipse fill="none" stroke="black" cx="214" cy="-162" rx="27" ry="18"/>
<text text-anchor="middle" x="214" y="-158.3" font-family="Times,serif" font-size="14.00">8</text>
<text text-anchor="middle" x="183.5" y="-183.8" font-family="Times,serif" font-size="14.00">2</text>
</g>
<!-- 5&#45;&gt;8 -->
<g id="edge2" class="edge"><title>5&#45;&gt;8</title>
<path fill="none" stroke="black" d="M186.35,-216.765C190.712,-208.283 196.147,-197.714 201.041,-188.197"/>
<polygon fill="black" stroke="black" points="204.235,-189.641 205.696,-179.147 198.01,-186.439 204.235,-189.641"/>
</g>
<!-- 1 -->
<g id="node4" class="node"><title>1</title>
<ellipse fill="none" stroke="black" cx="70" cy="-90" rx="27" ry="18"/>
<text text-anchor="middle" x="70" y="-86.3" font-family="Times,serif" font-size="14.00">1</text>
<text text-anchor="middle" x="39.5" y="-111.8" font-family="Times,serif" font-size="14.00">3</text>
</g>
<!-- 3&#45;&gt;1 -->
<g id="edge3" class="edge"><title>3&#45;&gt;1</title>
<path fill="none" stroke="black" d="M127.43,-146.834C117.25,-136.938 103.476,-123.546 91.9694,-112.359"/>
<polygon fill="black" stroke="black" points="94.4055,-109.846 84.7957,-105.385 89.5259,-114.865 94.4055,-109.846"/>
</g>
<!-- 4 -->
<g id="node5" class="node"><title>4</title>
<ellipse fill="none" stroke="black" cx="142" cy="-90" rx="27" ry="18"/>
<text text-anchor="middle" x="142" y="-86.3" font-family="Times,serif" font-size="14.00">4</text>
<text text-anchor="middle" x="111.5" y="-111.8" font-family="Times,serif" font-size="14.00">4</text>
</g>
<!-- 3&#45;&gt;4 -->
<g id="edge4" class="edge"><title>3&#45;&gt;4</title>
<path fill="none" stroke="black" d="M142,-143.697C142,-135.983 142,-126.712 142,-118.112"/>
<polygon fill="black" stroke="black" points="145.5,-118.104 142,-108.104 138.5,-118.104 145.5,-118.104"/>
</g>
<!-- 6 -->
<g id="node6" class="node"><title>6</title>
<ellipse fill="none" stroke="black" cx="214" cy="-90" rx="27" ry="18"/>
<text text-anchor="middle" x="214" y="-86.3" font-family="Times,serif" font-size="14.00">6</text>
<text text-anchor="middle" x="183.5" y="-111.8" font-family="Times,serif" font-size="14.00">5</text>
</g>
<!-- 8&#45;&gt;6 -->
<g id="edge5" class="edge"><title>8&#45;&gt;6</title>
<path fill="none" stroke="black" d="M214,-143.697C214,-135.983 214,-126.712 214,-118.112"/>
<polygon fill="black" stroke="black" points="217.5,-118.104 214,-108.104 210.5,-118.104 217.5,-118.104"/>
</g>
<!-- 12 -->
<g id="node7" class="node"><title>12</title>
<ellipse fill="none" stroke="black" cx="286" cy="-90" rx="27" ry="18"/>
<text text-anchor="middle" x="286" y="-86.3" font-family="Times,serif" font-size="14.00">12</text>
<text text-anchor="middle" x="255.5" y="-111.8" font-family="Times,serif" font-size="14.00">6</text>
</g>
<!-- 8&#45;&gt;12 -->
<g id="edge6" class="edge"><title>8&#45;&gt;12</title>
<path fill="none" stroke="black" d="M228.57,-146.834C238.75,-136.938 252.524,-123.546 264.031,-112.359"/>
<polygon fill="black" stroke="black" points="266.474,-114.865 271.204,-105.385 261.595,-109.846 266.474,-114.865"/>
</g>
<!-- 9 -->
<g id="node8" class="node"><title>9</title>
<ellipse fill="none" stroke="black" cx="34" cy="-18" rx="27" ry="18"/>
<text text-anchor="middle" x="34" y="-14.3" font-family="Times,serif" font-size="14.00">9</text>
<text text-anchor="middle" x="3.5" y="-39.8" font-family="Times,serif" font-size="14.00">7</text>
</g>
<!-- 1&#45;&gt;9 -->
<g id="edge7" class="edge"><title>1&#45;&gt;9</title>
<path fill="none" stroke="black" d="M61.6504,-72.7646C57.2885,-64.2831 51.8531,-53.7144 46.9587,-44.1974"/>
<polygon fill="black" stroke="black" points="49.9904,-42.4395 42.3043,-35.1473 43.7654,-45.6409 49.9904,-42.4395"/>
</g>
<!-- 7 -->
<g id="node9" class="node"><title>7</title>
<ellipse fill="none" stroke="black" cx="106" cy="-18" rx="27" ry="18"/>
<text text-anchor="middle" x="106" y="-14.3" font-family="Times,serif" font-size="14.00">7</text>
<text text-anchor="middle" x="75.5" y="-39.8" font-family="Times,serif" font-size="14.00">8</text>
</g>
<!-- 1&#45;&gt;7 -->
<g id="edge8" class="edge"><title>1&#45;&gt;7</title>
<path fill="none" stroke="black" d="M78.3496,-72.7646C82.7115,-64.2831 88.1469,-53.7144 93.0413,-44.1974"/>
<polygon fill="black" stroke="black" points="96.2346,-45.6409 97.6957,-35.1473 90.0096,-42.4395 96.2346,-45.6409"/>
</g>
</g>
</svg>
